<svg xmlns="http://www.w3.org/2000/svg" viewBox="0 0 561 130"><path fill="#487aac" stroke="#487aac" d="M34.42 81.94q-1.37 0-2.45-.47t-3.53-1.91l-11.38-6.7-3.96 5.69q-.79 1.08-1.98 1.73-1.18.65-2.41.65-1.37 0-2.3-.83-.94-.83-.94-2.34 0-2.38 3.03-6.98 1.94-3.03 3.92-4.43 1.98-1.41 4.36-1.41 1.36 0 2.59.51 1.22.5 3.53 1.87l11.37 6.7 3.96-5.69q.79-1.08 1.98-1.73 1.19-.65 2.41-.65 1.37 0 2.31.83.93.83.93 2.34 0 2.38-3.02 6.98-2.02 3.03-4.03 4.43-2.02 1.41-4.39 1.41zm50.4 0q-1.37 0-2.45-.47t-3.53-1.91l-11.38-6.7-3.96 5.69q-.79 1.08-1.98 1.73-1.18.65-2.41.65-1.37 0-2.3-.83-.94-.83-.94-2.34 0-2.38 3.03-6.98 1.94-3.03 3.92-4.43 1.98-1.41 4.36-1.41 1.36 0 2.59.51 1.22.5 3.53 1.87l11.37 6.7 3.96-5.69q.79-1.08 1.98-1.73 1.19-.65 2.41-.65 1.37 0 2.31.83.93.83.93 2.34 0 2.38-3.02 6.98-2.02 3.03-4.03 4.43-2.02 1.41-4.39 1.41zm89.42-1.23q1.08-.43 1.8-.43 1.15 0 1.73.86.57.87.57 2.24 0 2.16-1.04 3.67-1.04 1.51-3.56 2.73-4.25 2.02-11.02 3.21t-13.32 1.19q-9.07 0-15.19-2.06-6.12-2.05-9.11-5.65-2.99-3.6-2.99-8.13 0-6.2 4-10.55 3.99-4.36 11.77-6.3-4.25-1.23-6.52-4.32-2.26-3.1-2.26-6.91 0-5.19 3.27-9.18 3.28-4 8.82-6.16 5.55-2.16 12.17-2.16 8.93 0 13.39 3.85 4.47 3.85 4.47 9.97 0 4.25-1.55 6.88t-4.43 2.63q-2.02 0-3.17-.9t-1.15-2.7q0-1.23.36-2.67.36-2.37.36-3.24 0-2.59-1.94-4.21-1.95-1.62-6.48-1.62-6.12 0-9.8 2.59-3.67 2.6-3.67 6.99 0 3.38 2.77 5.58 2.78 2.19 9.04 2.41 1.58.07 2.23.72.65.65.65 2.16 0 4.75-4.32 4.82-5.98.15-9.9 1.66t-5.69 3.85q-1.76 2.34-1.76 5.01 0 4.46 4.17 6.73 4.18 2.27 13.25 2.27 5.98 0 12.64-1.41 6.66-1.4 11.41-3.42zm36.94-2.95q.93 0 1.47.86.54.87.54 2.38 0 2.88-1.37 4.46-3.09 3.82-6.66 6.27-3.56 2.45-8.1 2.45-3.81 0-6.19-2.74-4.1 2.66-8.57 2.74-.93 13.89-4.24 23.22-3.32 9.32-9.72 9.32-3.89 0-5.76-2.81-1.88-2.81-1.88-7.77 0-7.06 3.24-16.46 3.24-9.39 10.01-20.7 0-10.51-.14-14.61-.07-2.09 1.65-3.31 1.73-1.23 4.32-1.23 1.52 0 2.2.61.68.62.76 2.42 0 1.8.07 2.66 2.3-2.88 4.53-4.14 2.24-1.26 4.76-1.26 4.03 0 6.58 3.24 2.56 3.24 2.56 8.5 0 3.81-1.22 7.41-1.23 3.6-3.39 6.55 1.51.44 2.52.44 2.38 0 4.54-1.73t5.54-5.76q.87-1.01 1.95-1.01zm-28.52 9.5q2.6-.57 4.79-2.84 2.2-2.27 3.49-5.62 1.3-3.34 1.3-7.02 0-2.16-.86-3.27-.87-1.12-2.31-1.12-2.59 0-6.26 5.47-.07 3.17-.07 9.29 0 3.31-.08 5.11zm-13.75 32.4q1.95 0 3.24-8.46 1.3-8.46 1.66-21.06-3.1 7.2-4.9 13.76-1.8 6.55-1.8 11.01 0 2.31.54 3.53.54 1.22 1.26 1.22zm78.41-41.9q.94 0 1.48.86.54.87.54 2.38 0 2.88-1.37 4.46-3.31 3.82-6.81 6.27-3.49 2.45-7.95 2.45-3.67 0-5.55-2.13-1.87-2.12-1.87-6.15 0-2.02 1.01-7.2.94-4.54.94-6.27 0-1.15-.8-1.15-.93 0-2.66 2.41t-3.46 6.37q-1.72 3.96-2.8 8.36-1.37 5.76-6.77 5.76-2.16 0-2.85-1.55-.68-1.55-.68-5.58 0-2.31.07-3.67l.07-5.76q0-11.09 2.27-23.12 2.27-12.02 6.7-20.19 4.43-8.17 10.62-8.17 3.31 0 5.36 2.84 2.05 2.84 2.05 7.38 0 7.27-4.24 15.08-4.25 7.82-13.83 18.26-.21 3.74-.21 7.7 2.37-6.12 5.29-9.97 2.91-3.85 5.76-5.51 2.84-1.66 5.22-1.66 4.68 0 4.68 4.68 0 2.81-1.59 10.16-1.36 6.26-1.36 8.28 0 2.88 2.08 2.88 1.44 0 3.42-1.77 1.98-1.76 5.3-5.72.86-1.01 1.94-1.01zm-21.38-44.5q-1.3 0-2.88 3.71-1.59 3.71-3.06 10.01-1.48 6.3-2.42 13.72 4.47-5.26 7.38-11.45 2.92-6.19 2.92-11.23 0-2.31-.5-3.53-.51-1.23-1.44-1.23zm49.68 44.5q.93 0 1.47.86.54.87.54 2.38 0 2.88-1.37 4.46-2.66 3.24-7.52 5.98-4.86 2.74-10.4 2.74-7.56 0-11.74-4.11-4.18-4.1-4.18-11.23 0-4.97 2.09-9.25 2.09-4.29 5.8-6.81 3.71-2.52 8.39-2.52 4.17 0 6.69 2.49 2.52 2.48 2.52 6.73 0 4.97-3.56 8.53-3.57 3.57-12.06 5.65 1.8 3.32 6.84 3.32 3.24 0 7.38-2.27t7.16-5.94q.87-1.01 1.95-1.01zm-18.15-10.44q-2.66 0-4.5 3.1-1.83 3.09-1.83 7.48v.15q4.24-1.01 6.69-3.03 2.45-2.01 2.45-4.68 0-1.36-.76-2.19-.75-.83-2.05-.83zm19.44 26.86q-2.73 0-3.85-2.88t-1.12-9.22q0-9.36 2.67-17.78.65-2.09 2.12-3.06 1.48-.98 4.14-.98 1.44 0 2.02.36.57.36.57 1.37 0 1.15-1.08 5.19-.72 2.88-1.15 5-.43 2.12-.72 5.29 1.95-5.61 4.65-9.5 2.7-3.89 5.54-5.8 2.84-1.91 5.36-1.91 2.52 0 3.57 1.16 1.04 1.15 1.04 3.52 0 2.31-1.37 8.36-.57 2.59-.79 3.88 3.6-8.85 7.99-12.88 4.4-4.04 8.21-4.04 4.68 0 4.68 4.68 0 2.81-1.58 10.16-1.37 6.26-1.37 8.28 0 2.88 2.09 2.88 1.44 0 3.42-1.77 1.98-1.76 5.29-5.72.86-1.01 1.94-1.01.94 0 1.48.86.54.87.54 2.38 0 2.88-1.37 4.46-3.09 3.82-6.66 6.27-3.56 2.45-8.1 2.45-3.67 0-5.54-2.13-1.87-2.12-1.87-6.15 0-2.02 1-7.2.94-4.54.94-6.27 0-1.15-.79-1.15-.94 0-2.67 2.41-1.72 2.41-3.45 6.37-1.73 3.96-2.81 8.36-.79 3.45-1.84 4.6-1.04 1.16-3.34 1.16-2.38 0-3.57-2.27t-1.19-5.51q0-2.74.72-7.92.58-4.61.58-6.05 0-1.15-.79-1.15-1.08 0-2.74 2.59-1.65 2.59-3.2 6.63-1.55 4.03-2.49 7.92-.79 3.38-1.83 4.57-1.05 1.19-3.28 1.19zm80.57-16.42q.94 0 1.48.86.54.87.54 2.38 0 2.88-1.37 4.46-2.67 3.24-7.53 5.98t-10.4 2.74q-7.56 0-11.74-4.11-4.17-4.1-4.17-11.23 0-4.97 2.09-9.25 2.08-4.29 5.79-6.81 3.71-2.52 8.39-2.52 4.18 0 6.7 2.49 2.52 2.48 2.52 6.73 0 4.97-3.57 8.53-3.56 3.57-12.06 5.65 1.8 3.32 6.84 3.32 3.24 0 7.38-2.27t7.17-5.94q.86-1.01 1.94-1.01zm-18.14-10.44q-2.67 0-4.5 3.1Q333 73.51 333 77.9v.15q4.25-1.01 6.7-3.03 2.44-2.01 2.44-4.68 0-1.36-.75-2.19-.76-.83-2.05-.83zm19.44 26.86q-2.74 0-3.86-2.88-1.11-2.88-1.11-9.22 0-9.36 2.66-17.78.65-2.09 2.13-3.06 1.47-.98 4.14-.98 1.44 0 2.01.36.58.36.58 1.37 0 1.15-1.08 5.19-.72 2.88-1.15 5.04-.44 2.16-.72 5.32 2.37-6.19 5.32-10.08 2.96-3.88 5.8-5.54 2.84-1.66 5.22-1.66 4.68 0 4.68 4.68 0 .94-.65 4.54-.57 2.88-.57 3.6 0 2.52 1.8 2.52 2.01 0 5.18-3.17.94-.93 1.94-.93.94 0 1.48.82.54.83.54 2.2 0 2.66-1.44 4.18-2.02 2.08-4.72 3.56-2.7 1.48-5.72 1.48-3.82 0-5.8-1.95-1.98-1.94-1.98-5.25 0-1.08.22-2.16.14-1.44.14-1.95 0-1.15-.79-1.15-1.08 0-2.84 2.41-1.77 2.41-3.49 6.37-1.73 3.96-2.81 8.36-.79 3.38-1.84 4.57-1.04 1.19-3.27 1.19zm36.5 0q-4.46 0-7.13-3.24-2.66-3.24-2.66-8.5 0-5.76 2.66-10.91 2.67-5.15 7.09-8.28 4.43-3.13 9.4-3.13 1.58 0 2.12.61t.9 2.2q1.52-.29 3.17-.29 3.53 0 3.53 2.52 0 1.51-1.08 7.2-1.66 8.28-1.66 11.52 0 1.08.54 1.73.54.65 1.41.65 1.37 0 3.31-1.77 1.94-1.76 5.26-5.72.86-1.01 1.94-1.01.94 0 1.48.86.54.87.54 2.38 0 2.88-1.37 4.46-2.95 3.68-6.27 6.2-3.31 2.52-6.4 2.52-2.38 0-4.36-1.62-1.98-1.62-2.99-4.43-3.74 6.05-9.43 6.05zm2.59-7.28q1.59 0 3.03-1.87 1.44-1.87 2.08-4.97l2.67-13.24q-3.03.07-5.58 2.26-2.56 2.2-4.07 5.8-1.51 3.6-1.51 7.63 0 2.23.9 3.31t2.48 1.08zm49.68-9.14q.94 0 1.48.86.54.87.54 2.38 0 2.88-1.37 4.46-3.1 3.82-6.73 6.27-3.64 2.45-8.25 2.45-6.33 0-9.39-5.76-3.06-5.76-3.06-14.91 0-8.78 2.27-20.01 2.26-11.24 6.69-19.3 4.43-8.06 10.55-8.06 3.46 0 5.44 3.2 1.98 3.2 1.98 9.18 0 8.57-4.76 19.87-4.75 11.31-12.88 22.39.5 2.96 1.65 4.22 1.15 1.26 3.03 1.26 2.95 0 5.18-1.7 2.23-1.69 5.69-5.79.86-1.01 1.94-1.01zm-8.85-44.5q-1.66 0-3.75 5.98t-3.67 14.83q-1.58 8.86-1.73 16.99 5.11-8.42 8.14-16.88 3.02-8.46 3.02-15.44 0-5.48-2.01-5.48zm55.08 48.68q-1.37 0-2.45-.47t-3.53-1.91l-11.38-6.7-3.96 5.69q-.79 1.08-1.98 1.73-1.18.65-2.41.65-1.37 0-2.3-.83-.94-.83-.94-2.34 0-2.38 3.03-6.98 1.94-3.03 3.92-4.43 1.98-1.41 4.36-1.41 1.36 0 2.59.51 1.22.5 3.53 1.87l11.37 6.7 3.96-5.69q.79-1.08 1.98-1.73 1.19-.65 2.41-.65 1.37 0 2.31.83.93.83.93 2.34 0 2.38-3.02 6.98-2.02 3.03-4.03 4.43-2.02 1.41-4.39 1.41zm50.4 0q-1.37 0-2.45-.47t-3.53-1.91l-11.38-6.7-3.96 5.69q-.79 1.08-1.98 1.73-1.18.65-2.41.65-1.37 0-2.3-.83-.94-.83-.94-2.34 0-2.38 3.03-6.98 1.94-3.03 3.92-4.43 1.98-1.41 4.36-1.41 1.36 0 2.59.51 1.22.5 3.53 1.87l11.37 6.7 3.96-5.69q.79-1.08 1.98-1.73 1.19-.65 2.41-.65 1.37 0 2.31.83.93.83.93 2.34 0 2.38-3.02 6.98-2.02 3.03-4.03 4.43-2.02 1.41-4.39 1.41z"/></svg>
